<?xml version="1.0" encoding="utf-8"?>
<svg viewBox="0 0 30 30" width="64px" height="64px" xmlns="http://www.w3.org/2000/svg">
  <path d="M 15.021 0.292 C 6.816 0.292 0.164 6.944 0.164 15.15 C 0.164 22.111 4.957 27.936 11.42 29.548 C 11.351 29.348 11.306 29.115 11.306 28.826 L 11.306 26.287 C 10.704 26.287 9.693 26.287 9.439 26.287 C 8.423 26.287 7.519 25.85 7.081 25.037 C 6.595 24.135 6.51 22.755 5.304 21.91 C 4.946 21.629 5.218 21.308 5.63 21.352 C 6.392 21.567 7.023 22.09 7.618 22.865 C 8.21 23.641 8.488 23.817 9.594 23.817 C 10.13 23.817 10.933 23.786 11.688 23.667 C 12.093 22.636 12.795 21.687 13.653 21.238 C 8.706 20.729 6.346 18.268 6.346 14.926 C 6.346 13.488 6.958 12.096 8 10.923 C 7.658 9.76 7.228 7.387 8.13 6.482 C 10.357 6.482 11.702 7.926 12.026 8.316 C 13.135 7.936 14.353 7.72 15.633 7.72 C 16.916 7.72 18.14 7.936 19.251 8.318 C 19.57 7.932 20.918 6.482 23.149 6.482 C 24.054 7.388 23.62 9.771 23.275 10.932 C 24.31 12.103 24.919 13.49 24.919 14.926 C 24.919 18.265 22.562 20.726 17.622 21.237 C 18.981 21.946 19.973 23.94 19.973 25.441 L 19.973 28.826 C 19.973 28.955 19.944 29.048 19.929 29.158 C 25.719 27.129 29.877 21.631 29.877 15.15 C 29.877 6.944 23.225 0.292 15.021 0.292 Z"/>
</svg>