<?xml version="1.0" encoding="utf-8"?>
<svg viewBox="0 0 50 50" width="64px" height="64px" xmlns="http://www.w3.org/2000/svg">
  <path d="M 43.893 0.121 L 6.036 0.121 C 2.771 0.121 0.121 2.771 0.121 6.036 L 0.121 43.893 C 0.121 47.158 2.771 49.808 6.036 49.808 L 43.893 49.808 C 47.158 49.808 49.808 47.158 49.808 43.893 L 49.808 6.036 C 49.808 2.771 47.158 0.121 43.893 0.121 Z M 15.501 19.05 L 15.501 41.527 L 8.403 41.527 L 8.403 19.05 L 15.501 19.05 Z M 8.403 12.507 C 8.403 10.851 9.823 9.585 11.952 9.585 C 14.081 9.585 15.417 10.851 15.501 12.507 C 15.501 14.163 14.175 15.501 11.952 15.501 C 9.823 15.501 8.403 14.163 8.403 12.507 Z M 41.527 41.527 L 34.428 41.527 C 34.428 41.527 34.428 30.572 34.428 29.697 C 34.428 27.33 33.246 24.965 30.288 24.917 L 30.194 24.917 C 27.33 24.917 26.148 27.354 26.148 29.697 C 26.148 30.773 26.148 41.527 26.148 41.527 L 19.05 41.527 L 19.05 19.05 L 26.148 19.05 L 26.148 22.078 C 26.148 22.078 28.431 19.05 33.022 19.05 C 37.718 19.05 41.527 22.279 41.527 28.822 L 41.527 41.527 Z"/>
</svg>