<?xml version="1.0" encoding="utf-8"?>
<svg viewBox="0 0 72 72" width="64px" height="64px" xmlns="http://www.w3.org/2000/svg">
  <path d="M 46.523 0.227 L 41.398 4.039 L 60.46 29.666 L 65.583 25.853 L 46.523 0.227 Z M 34.772 10.427 L 30.683 15.334 L 55.224 35.771 L 59.31 30.862 L 34.772 10.427 Z M 25.369 23.745 L 22.672 29.536 L 51.619 43.016 L 54.315 37.23 L 25.369 23.745 Z M 19.853 38.248 L 18.537 44.499 L 49.787 51.067 L 51.099 44.819 L 19.853 38.248 Z M 5.242 46.392 L 5.242 71.841 L 62.505 71.841 L 62.505 46.392 L 56.141 46.392 L 56.141 65.48 L 11.604 65.48 L 11.604 46.392 L 5.242 46.392 Z M 17.965 52.753 L 17.965 59.118 L 49.776 59.118 L 49.776 52.753 L 17.965 52.753 Z"/>
</svg>